<mxfile host="65bd71144e">
    <diagram id="PJUcH5DoX_je9wz6kGVX" name="Page-1">
        <mxGraphModel dx="1195" dy="699" grid="1" gridSize="10" guides="1" tooltips="1" connect="1" arrows="1" fold="1" page="1" pageScale="1" pageWidth="1200" pageHeight="1920" math="0" shadow="0">
            <root>
                <mxCell id="0"/>
                <mxCell id="1" parent="0"/>
                <mxCell id="2" value="" style="shape=image;verticalLabelPosition=bottom;labelBackgroundColor=default;verticalAlign=top;aspect=fixed;imageAspect=0;image=https://blog.cleancoder.com/uncle-bob/images/2012-08-13-the-clean-architecture/CleanArchitecture.jpg;" parent="1" vertex="1">
                    <mxGeometry x="20" y="20" width="520" height="382" as="geometry"/>
                </mxCell>
                <mxCell id="4" value="" style="rounded=0;whiteSpace=wrap;html=1;fillColor=none;fontColor=#ffffff;strokeColor=#66FFFF;strokeWidth=6;" parent="1" vertex="1">
                    <mxGeometry x="120" y="490" width="170" height="80" as="geometry"/>
                </mxCell>
                <mxCell id="5" value="Class" style="text;html=1;align=center;verticalAlign=middle;resizable=0;points=[];autosize=1;strokeColor=none;fillColor=none;fontSize=21;" parent="1" vertex="1">
                    <mxGeometry x="20" y="510" width="80" height="40" as="geometry"/>
                </mxCell>
                <mxCell id="6" value="" style="endArrow=classic;html=1;fontSize=21;fillColor=#1ba1e2;strokeColor=#66FFFF;strokeWidth=3;" parent="1" edge="1">
                    <mxGeometry width="50" height="50" relative="1" as="geometry">
                        <mxPoint x="320" y="510" as="sourcePoint"/>
                        <mxPoint x="460" y="510" as="targetPoint"/>
                    </mxGeometry>
                </mxCell>
                <mxCell id="7" value="" style="endArrow=classic;html=1;fontSize=21;fillColor=#1ba1e2;strokeColor=#66FFFF;dashed=1;strokeWidth=3;" parent="1" edge="1">
                    <mxGeometry width="50" height="50" relative="1" as="geometry">
                        <mxPoint x="320" y="550" as="sourcePoint"/>
                        <mxPoint x="460" y="550" as="targetPoint"/>
                    </mxGeometry>
                </mxCell>
                <mxCell id="8" value="" style="swimlane;startSize=0;strokeColor=#99FF99;strokeWidth=2;fontSize=21;fillColor=none;fontColor=#ffffff;" parent="1" vertex="1">
                    <mxGeometry x="115" y="740" width="520" height="200" as="geometry"/>
                </mxCell>
                <mxCell id="9" value="Camadas" style="text;html=1;align=center;verticalAlign=middle;resizable=0;points=[];autosize=1;strokeColor=none;fillColor=none;fontSize=21;" parent="1" vertex="1">
                    <mxGeometry x="5" y="820" width="110" height="40" as="geometry"/>
                </mxCell>
                <mxCell id="10" value="" style="rounded=0;whiteSpace=wrap;html=1;fillColor=none;fontColor=#ffffff;strokeColor=#FF3333;strokeWidth=6;" parent="1" vertex="1">
                    <mxGeometry x="120" y="620" width="170" height="80" as="geometry"/>
                </mxCell>
                <mxCell id="11" value="Externo" style="text;html=1;align=center;verticalAlign=middle;resizable=0;points=[];autosize=1;strokeColor=none;fillColor=none;fontSize=21;" parent="1" vertex="1">
                    <mxGeometry x="10" y="640" width="100" height="40" as="geometry"/>
                </mxCell>
                <mxCell id="16" value="" style="swimlane;startSize=0;strokeColor=#99FF99;strokeWidth=2;fontSize=21;fillColor=none;fontColor=#ffffff;" vertex="1" parent="1">
                    <mxGeometry x="1230" y="610" width="750" height="200" as="geometry"/>
                </mxCell>
                <mxCell id="23" style="edgeStyle=none;html=1;entryX=0;entryY=0.5;entryDx=0;entryDy=0;strokeWidth=3;fontSize=22;" edge="1" parent="16" source="12" target="22">
                    <mxGeometry relative="1" as="geometry"/>
                </mxCell>
                <mxCell id="12" value="&lt;div style=&quot;color: rgb(204, 204, 204); background-color: rgb(31, 31, 31); font-family: Consolas, &amp;quot;Courier New&amp;quot;, monospace; font-size: 16px; line-height: 22px;&quot;&gt;&lt;span style=&quot;color: rgb(78, 201, 176); font-size: 21px;&quot;&gt;CheckLastEventStatus&lt;/span&gt;&lt;/div&gt;" style="rounded=0;whiteSpace=wrap;html=1;fillColor=none;fontColor=#ffffff;strokeColor=#66FFFF;strokeWidth=6;" vertex="1" parent="16">
                    <mxGeometry x="40" y="60" width="270" height="80" as="geometry"/>
                </mxCell>
                <mxCell id="22" value="LoadLastEventRepoInterface" style="rounded=0;whiteSpace=wrap;html=1;fillColor=none;fontColor=#ffffff;strokeColor=#66FFFF;strokeWidth=6;" vertex="1" parent="16">
                    <mxGeometry x="440" y="60" width="170" height="80" as="geometry"/>
                </mxCell>
                <mxCell id="17" value="Dominio" style="text;html=1;align=center;verticalAlign=middle;resizable=0;points=[];autosize=1;strokeColor=none;fillColor=none;fontSize=21;" vertex="1" parent="1">
                    <mxGeometry x="1880" y="570" width="100" height="40" as="geometry"/>
                </mxCell>
                <mxCell id="18" value="" style="swimlane;startSize=0;strokeColor=#99FF99;strokeWidth=2;fontSize=21;fillColor=none;fontColor=#ffffff;" vertex="1" parent="1">
                    <mxGeometry x="1220" y="350" width="520" height="200" as="geometry"/>
                </mxCell>
                <mxCell id="13" value="&lt;div style=&quot;color: rgb(204, 204, 204); background-color: rgb(31, 31, 31); font-family: Consolas, &amp;quot;Courier New&amp;quot;, monospace; font-size: 16px; line-height: 22px;&quot;&gt;&lt;span style=&quot;color: #4ec9b0;&quot;&gt;LoadLastEventRepository&lt;/span&gt;&lt;/div&gt;" style="rounded=0;whiteSpace=wrap;html=1;fillColor=none;fontColor=#ffffff;strokeColor=#66FFFF;strokeWidth=6;" vertex="1" parent="18">
                    <mxGeometry x="145" y="40" width="250" height="80" as="geometry"/>
                </mxCell>
                <mxCell id="19" value="Infra" style="text;html=1;align=center;verticalAlign=middle;resizable=0;points=[];autosize=1;strokeColor=none;fillColor=none;fontSize=21;" vertex="1" parent="1">
                    <mxGeometry x="1670" y="300" width="70" height="40" as="geometry"/>
                </mxCell>
                <mxCell id="20" value="&lt;font style=&quot;font-size: 22px;&quot;&gt;TypeORM&lt;/font&gt;" style="rounded=0;whiteSpace=wrap;html=1;fillColor=none;fontColor=#ffffff;strokeColor=#FF3333;strokeWidth=6;" vertex="1" parent="1">
                    <mxGeometry x="1405" y="190" width="170" height="80" as="geometry"/>
                </mxCell>
                <mxCell id="21" style="edgeStyle=none;html=1;entryX=0.5;entryY=1;entryDx=0;entryDy=0;strokeWidth=3;fontSize=22;" edge="1" parent="1" source="13" target="20">
                    <mxGeometry relative="1" as="geometry"/>
                </mxCell>
                <mxCell id="24" style="edgeStyle=none;html=1;entryX=0.5;entryY=0;entryDx=0;entryDy=0;strokeWidth=3;fontSize=22;" edge="1" parent="1" source="13" target="22">
                    <mxGeometry relative="1" as="geometry"/>
                </mxCell>
            </root>
        </mxGraphModel>
    </diagram>
</mxfile>